<svg width="103" height="434" viewBox="0 0 103 434" fill="none" xmlns="http://www.w3.org/2000/svg">
<path d="M100.97 33.1746C101.016 53.4215 90.6829 65.4537 75.762 66.4064L75.7181 47.0467C80.6924 47.0355 87.308 44.2638 87.6927 32.2859C87.6739 23.9843 82.6892 19.4013 78.9505 19.4098C73.1545 20.3418 72.7593 27.7254 71.5087 35.0792C70.3235 43.3835 68.6589 49.8194 66.61 54.4501C63.2978 60.8897 56.2408 64.613 48.7951 64.6298C35.5197 64.66 25.134 53.5936 25.0901 34.2657C25.0483 15.8249 34.5579 3.82622 49.0669 2.90611L49.1087 21.3152C45.4017 21.3236 39.1622 22.2567 39.1872 33.3148C39.204 40.6975 40.4501 45.289 45.8384 46.1957C53.3157 46.1787 52.8683 30.5271 55.7243 18.5436C58.6141 7.47882 65.6311 0.0802069 75.6115 0.0575622C93.8612 0.0161548 100.928 14.7338 100.97 33.1746" fill="#F2F2F2"/>
<path d="M99.2664 252.301L25.4435 252.469Z" fill="#F2F2F2"/>
<path d="M99.2664 252.301L25.4435 252.469" stroke="#F2F2F2" stroke-width="21.5"/>
<path d="M63.819 415.54C75.4152 415.514 84.9289 405.353 84.9039 394.327C84.8767 382.318 75.3191 373.151 63.7229 373.177C52.5386 373.202 42.6107 382.414 42.638 394.422C42.663 405.449 52.6347 415.566 63.819 415.54V415.54ZM101.92 395.207C101.966 415.454 84.9916 432.982 63.8587 433.03C42.7257 433.078 26.0838 415.626 26.0379 395.379C26.019 387.077 28.0934 379.69 32.6096 373.248L26.8115 373.261L26.7696 354.82L100.149 354.654L100.191 373.094L95.6283 373.105C99.7913 378.608 101.901 386.905 101.92 395.207" fill="#F2F2F2"/>
<path d="M63.6264 330.783C75.2226 330.757 84.7384 321.515 84.7112 309.538C84.6862 298.511 75.1264 288.362 63.5302 288.388C52.3458 288.414 42.4203 298.607 42.4453 309.634C42.4725 321.611 52.442 330.808 63.6264 330.783ZM101.727 310.418C101.776 331.615 84.799 348.225 63.666 348.273C42.5331 348.321 25.8933 331.788 25.8452 310.59C25.8264 302.32 27.9008 294.933 32.4169 288.459L1.33523 288.529L1.29346 270.12L99.9562 269.896L99.998 288.306L95.4356 288.316C99.6008 294.77 101.709 302.148 101.727 310.418" fill="#F2F2F2"/>
<path d="M0.603287 261.81L0.561381 243.401L18.8111 243.359L18.8529 261.768L0.603287 261.81Z" fill="#F2F2F2"/>
<path d="M63.1795 133.702C74.7757 133.676 84.2915 124.434 84.2643 112.457C84.2392 101.399 74.6795 91.3128 63.0833 91.3391C51.899 91.3645 41.9733 101.495 41.9984 112.553C42.0256 124.53 51.9951 133.728 63.1795 133.702V133.702ZM101.281 113.369C101.329 134.535 84.3521 151.145 63.2191 151.192C42.0862 151.24 25.4464 134.707 25.3983 113.541C25.3795 105.239 27.4539 97.8521 31.97 91.4097L26.1719 91.4229L26.1322 73.9009L99.5114 73.7344L99.5512 91.2564L94.9887 91.2667C99.1539 97.6894 101.262 105.067 101.281 113.369" fill="#F2F2F2"/>
<path d="M63.3715 218.396C74.9677 218.37 84.4814 208.209 84.4563 197.151C84.4292 185.174 74.8715 175.975 63.2753 176.002C52.091 176.027 42.1632 185.27 42.1904 197.247C42.2155 208.305 52.1872 218.422 63.3715 218.396ZM1.08035 176.143L1.03858 157.734L99.7014 157.51L99.7431 175.919L95.1807 175.929C99.3438 181.465 101.452 188.843 101.47 197.112C101.519 218.31 84.5441 235.839 63.4112 235.887C42.2782 235.935 25.6363 218.482 25.5882 197.285C25.5694 189.015 27.6438 181.627 32.162 176.072L1.08035 176.143Z" fill="#F2F2F2"/>
</svg>
