<svg width="113" height="48" viewBox="0 0 113 48" fill="none" xmlns="http://www.w3.org/2000/svg">
<path d="M5.724 20.27C9.639 20.27 12.177 17.651 12.177 13.628V1.019H8.478V13.844C8.478 15.788 7.398 16.868 5.697 16.868C4.563 16.868 3.645 16.382 2.997 15.437L0.513 17.813C1.647 19.352 3.429 20.27 5.724 20.27ZM20.9708 20.27C24.4538 20.27 26.8568 17.948 26.8568 14.519V6.959H23.3198V14.438C23.3198 16.085 22.4558 17.003 20.9708 17.003C19.4858 17.003 18.6218 16.058 18.6218 14.438V6.959H15.0578V14.519C15.0578 17.894 17.5148 20.27 20.9708 20.27ZM34.1554 20.297C37.3144 20.297 39.2854 18.704 39.2854 16.139C39.2854 11.306 32.7514 12.494 32.7514 10.577C32.7514 9.983 33.3184 9.659 34.3714 9.659C35.5054 9.659 36.5314 10.064 37.3144 11.036L39.4474 8.903C38.3134 7.418 36.5044 6.635 34.3444 6.635C31.2394 6.635 29.3224 8.255 29.3224 10.739C29.3224 15.518 35.8834 14.168 35.8834 16.301C35.8834 16.949 35.2624 17.273 34.1284 17.273C32.6704 17.273 31.4824 16.76 30.5914 15.761L28.4854 17.894C29.7814 19.406 31.9144 20.297 34.1554 20.297ZM43.5875 20H47.1245V10.064H50.1755V6.959H47.1245V1.532H43.5875V6.959H40.5365V10.064H43.5875V20ZM62.9461 20.27C64.4311 20.27 65.7541 19.73 66.6721 18.839V20H70.1821V0.478999H66.6451V8.066C65.7001 7.202 64.4041 6.689 62.9461 6.689C59.3281 6.689 56.6281 9.632 56.6281 13.493C56.6281 17.354 59.3281 20.27 62.9461 20.27ZM63.5401 17.003C61.5961 17.003 60.2461 15.545 60.2461 13.466C60.2461 11.414 61.5961 9.956 63.5401 9.956C65.5111 9.956 66.8611 11.414 66.8611 13.466C66.8611 15.545 65.5111 17.003 63.5401 17.003ZM79.4401 20.27C83.3821 20.27 86.4061 17.3 86.4061 13.439C86.4061 9.605 83.3821 6.662 79.4131 6.662C75.4711 6.662 72.4471 9.632 72.4471 13.439C72.4471 17.3 75.4981 20.27 79.4401 20.27ZM79.4131 16.976C77.4421 16.976 76.0651 15.518 76.0651 13.466C76.0651 11.441 77.4421 9.983 79.4131 9.983C81.3841 9.983 82.7881 11.414 82.7881 13.466C82.7881 15.518 81.4111 16.976 79.4131 16.976ZM95.7386 4.853C96.8996 4.853 97.7366 3.962 97.7366 2.828C97.7366 1.694 96.8996 0.802999 95.7386 0.802999C94.5776 0.802999 93.7406 1.694 93.7406 2.828C93.7406 3.962 94.5776 4.853 95.7386 4.853ZM93.9566 20H97.5206V6.959H93.9566V20ZM102.571 20H106.108V10.064H109.159V6.959H106.108V1.532H102.571V6.959H99.5199V10.064H102.571V20ZM5.049 47H7.587L10.395 39.359L13.176 47H15.741L20.601 33.959H17.037L14.391 41.897L11.664 33.959H9.099L6.372 41.897L3.726 33.959H0.162L5.049 47ZM23.888 31.853C25.049 31.853 25.886 30.962 25.886 29.828C25.886 28.694 25.049 27.803 23.888 27.803C22.727 27.803 21.89 28.694 21.89 29.828C21.89 30.962 22.727 31.853 23.888 31.853ZM22.106 47H25.67V33.959H22.106V47ZM30.7203 47H34.2573V37.064H37.3083V33.959H34.2573V28.532H30.7203V33.959H27.6693V37.064H30.7203V47ZM39.2974 47H42.8344V39.521C42.8344 37.982 43.9414 36.902 45.4534 36.902C46.9924 36.902 48.0724 37.982 48.0724 39.521V47H51.6094V38.738C51.6094 35.768 49.5034 33.689 46.5334 33.689C45.0214 33.689 43.7254 34.229 42.8344 35.174V27.479H39.2974V47Z" fill="#949393"/>
<path d="M60.11 47H63.782V34.769L73.232 47H75.878V28.019H72.179V40.331L62.675 28.019H60.11V47ZM81.1312 31.853C82.2922 31.853 83.1292 30.962 83.1292 29.828C83.1292 28.694 82.2922 27.803 81.1312 27.803C79.9702 27.803 79.1332 28.694 79.1332 29.828C79.1332 30.962 79.9702 31.853 81.1312 31.853ZM79.3492 47H82.9132V33.959H79.3492V47ZM86.0465 47H89.5835V40.655L94.3625 47H98.6825L93.2825 40.169L98.4125 33.959H94.3355L89.5835 39.953V27.479H86.0465V47ZM105.942 47.27C108.048 47.27 109.911 46.514 111.207 45.029L109.128 42.95C108.345 43.841 107.211 44.3 105.915 44.3C104.106 44.3 102.837 43.355 102.405 41.735L111.936 41.708C112.071 41.114 112.125 40.628 112.125 40.169C112.125 36.416 109.425 33.662 105.699 33.662C101.838 33.662 98.8407 36.605 98.8407 40.466C98.8407 44.408 101.865 47.27 105.942 47.27ZM105.699 36.605C107.346 36.605 108.372 37.469 108.723 39.089H102.405C102.837 37.55 104.025 36.632 105.699 36.605Z" fill="white"/>
</svg>
